<?xml version="1.0" standalone="no"?>
<!DOCTYPE svg PUBLIC "-//W3C//DTD SVG 1.1//EN" "http://www.w3.org/Graphics/SVG/1.1/DTD/svg11.dtd" >
<svg xmlns="http://www.w3.org/2000/svg">
<metadata>Generated by IcoMoon</metadata>
<defs>
<font id="contact" horiz-adv-x="1024">
<font-face units-per-em="1024" ascent="960" descent="-64" />
<missing-glyph horiz-adv-x="1024" />
<glyph unicode="&#x20;" horiz-adv-x="512" d="" />
<glyph unicode="&#xe900;" glyph-name="company" d="M973.286 619.418h-207.501v223.718c0 50.355-40.819 91.162-91.162 91.162h-583.462c-50.342 0-91.162-40.819-91.162-91.162v-790.093c0-50.355 40.819-91.162 91.162-91.162h882.138c26.368 0 47.757 27.597 47.757 61.645v534.246c-0.013 34.048-21.389 61.645-47.77 61.645zM238.246 94.643h-108.237v108.237h108.237v-108.237zM238.246 276.966h-108.237v108.237h108.237v-108.237zM238.246 478.106h-108.237v108.25h108.237v-108.25zM238.246 674.112h-108.237v108.237h108.237v-108.237zM436.39 94.643h-108.237v108.237h108.237v-108.237zM436.39 276.966h-108.237v108.237h108.237v-108.237zM436.39 478.106h-108.237v108.25h108.237v-108.25zM436.39 674.112h-108.237v108.237h108.237v-108.237zM634.534 94.643h-108.237v108.237h108.237v-108.237zM634.534 276.966h-108.237v108.237h108.237v-108.237zM634.534 478.106h-108.237v108.25h108.237v-108.25zM634.534 674.112h-108.237v108.237h108.237v-108.237zM914.086 96.794h-66.086v170.675h66.086v-170.675zM914.086 343.795h-66.086v170.662h66.086v-170.662z" />
<glyph unicode="&#xe901;" glyph-name="address" d="M506.662-61.184c-6.771 0-13.261 2.688-18.048 7.475-15.155 15.155-371.277 374.144-371.277 624.371 0 214.682 174.656 389.338 389.325 389.338 214.694 0 389.338-174.656 389.338-389.338 0-77.184-33.805-172.186-100.506-282.368-7.309-12.070-22.989-15.91-35.059-8.627-12.070 7.309-15.936 22.989-8.627 35.059 61.786 102.093 93.12 188.198 93.12 255.936 0 186.522-151.757 338.278-338.278 338.278s-338.278-151.744-338.278-338.278c0-199.040 265.805-493.107 338.304-569.574 25.485 26.854 74.867 80.576 127.872 147.315 0.026 0.026 0.051 0.077 0.077 0.102l5.504 6.95 1.37-0.998c8.781 5.286 20.365 4.838 28.915-1.946 8.179-6.477 11.29-16.973 8.832-26.458l1.69-1.318-6.31-7.949c-0.026-0.051-0.077-0.102-0.102-0.154-78.31-98.611-146.944-167.462-149.837-170.355-4.749-4.774-11.238-7.462-18.022-7.462zM508.109 353.139c-119.155 0-216.090 96.934-216.090 216.077 0 119.155 96.934 216.090 216.090 216.090 119.142 0 216.077-96.934 216.077-216.090 0.013-119.142-96.922-216.077-216.077-216.077zM508.109 734.259c-90.995 0-165.030-74.035-165.030-165.030 0-90.982 74.035-165.018 165.030-165.018s165.018 74.035 165.018 165.018c0.013 90.995-74.010 165.030-165.018 165.030z" />
<glyph unicode="&#xe902;" glyph-name="back" d="M624.384-63.245c-8.064 0-16.141 3.085-22.298 9.242l-484.045 484.045c-5.914 5.914-9.242 13.939-9.242 22.298s3.328 16.384 9.242 22.298l476.134 476.122c12.326 12.326 32.282 12.326 44.608 0s12.326-32.282 0-44.608l-453.837-453.811 461.747-461.747c12.326-12.326 12.326-32.282 0-44.608-6.17-6.144-14.234-9.229-22.31-9.229z" />
<glyph unicode="&#xe903;" glyph-name="bp" d="M901.926 228.454c-65.574 32.781-205.952 70.707-205.952 110.669 0 45.824 39.962 56.358 89.139 126.029 41.344 58.573 67.622 186.483 22.541 276.659-55.834 111.667-212.224 113.664-212.224 113.664-18.419-0.73-155.827-9.562-207.885-113.664-45.082-90.176-18.803-218.086 22.541-276.659 49.178-69.67 89.139-80.218 89.139-126.029 0-39.962-140.378-77.875-205.952-110.669-65.574-32.781-119.885-58.33-119.885-119.885 0-58.406 59.891-77.094 95.296-89.139 144.474-49.178 323.789-39.962 368.87-39.962l-0.013 0.294c0 0 128.090 5.85 180.826 13.338 36.621 5.197 73.331 14.477 108.147 26.33 35.405 12.045 95.296 30.746 95.296 89.139 0 61.555-54.31 87.091-119.885 119.885zM190.822 261.235c65.574 32.781 205.952 70.707 205.952 110.669 0 14.618-4.416 25.587-11.558 36.083-12.954 15.77-32.934 32.589-55.898 62.131-6.989 8.23-14.17 17.165-21.696 27.827-41.344 58.573-67.622 186.483-22.541 276.659 5.466 10.931 12.032 20.582 19.149 29.517-36.954-5.286-107.507-23.398-138.65-85.709-34.854-69.722-14.541-168.614 17.434-213.901 38.029-53.875 68.928-62.016 68.928-97.446 0-30.899-108.544-60.211-159.245-85.568-50.714-25.357-92.698-45.107-92.698-92.698 0-44.851 45.645-59.392 73.075-68.723 10.099 48.32 59.315 71.949 117.747 101.158z" />
<glyph unicode="&#xe904;" glyph-name="businesspatner" d="M299.418 210.458c-35.2 0-90.982 2.266-139.725 18.867-17.267 5.862-54.81 18.56-54.81 57.242 0 38.195 31.066 53.696 61.107 68.698 11.11 5.555 23.168 10.291 35.661 15.181 13.453 5.261 37.299 14.579 45.632 20.813-1.075 2.394-3.738 5.338-10.048 11.738-6.528 6.63-15.462 15.706-24.922 29.107-23.053 32.666-33.971 95.872-11.392 141.056 29.389 58.79 105.856 60.467 109.094 60.518 11.264 0.154 19.238-8.32 19.392-18.893 0.141-10.547-8.282-19.213-18.829-19.392v0c-0.563-0.013-56.512-1.549-75.418-39.36-16.307-32.614-6.080-81.306 8.422-101.862 7.654-10.854 14.707-18.010 20.915-24.32 10.675-10.854 21.722-22.080 21.722-42.061 0-25.395-31.168-37.581-70.643-53.005-11.302-4.416-22.221-8.627-30.362-12.71-31.117-15.526-42.048-22.234-42.048-35.507 0-9.498 9.28-14.374 27.571-20.557 54.746-18.637 120.397-17.613 148.378-17.075l8.691 0.102c10.56 0 19.136-8.576 19.136-19.136s-8.576-19.136-19.136-19.136l-8.051-0.102c-5.53-0.115-12.403-0.205-20.339-0.205zM407.181 216.73c-9.19 0-17.306 6.656-18.867 16.026-1.715 10.445 5.35 20.288 15.77 22.003 16.384 2.688 31.322 6.323 44.403 10.79 19.597 6.63 28.877 11.507 28.877 21.005 0 13.286-10.957 20.006-39.949 34.458-10.253 5.133-21.171 9.344-32.474 13.76-39.475 15.424-70.643 27.61-70.643 53.005 0 19.981 11.034 31.206 21.734 42.048 6.221 6.323 13.274 13.478 20.915 24.333 14.502 20.544 24.73 69.235 8.41 101.862-18.778 37.568-74.79 39.36-75.354 39.36-10.573 0.141-19.021 8.819-18.893 19.392 0.141 10.56 7.731 18.637 19.392 18.893 3.238-0.051 79.706-1.728 109.094-60.518 22.592-45.171 11.686-108.39-11.379-141.056-9.459-13.402-18.406-22.477-24.934-29.107-6.31-6.4-8.973-9.344-10.048-11.738 8.32-6.234 32.166-15.552 45.632-20.813 12.493-4.89 24.55-9.613 33.549-14.131 32.128-16.026 63.194-31.526 63.194-69.747 0-38.669-37.53-51.379-53.568-56.819-16.294-5.555-33.306-9.715-51.763-12.762-1.011-0.166-2.061-0.243-3.098-0.243zM944.128 21.888h-170.099c-14.106 0-25.523 11.418-25.523 25.523s11.418 25.523 25.523 25.523h170.099c14.080 0 25.523 11.443 25.523 25.523v680.461c0 14.067-11.443 25.523-25.523 25.523h-867.571c-14.067 0-25.523-11.456-25.523-25.523v-680.474c0-14.080 11.456-25.523 25.523-25.523h459.302c14.106 0 25.523-11.418 25.523-25.523s-11.418-25.523-25.523-25.523h-459.302c-42.214 0.013-76.557 34.355-76.557 76.57v680.474c0 42.214 34.342 76.557 76.557 76.557h867.584c42.214 0 76.557-34.342 76.557-76.557v-680.474c-0.013-42.214-34.355-76.557-76.57-76.557zM867.584 538.624h-297.69c-10.56 0-19.136 8.576-19.136 19.136s8.576 19.136 19.136 19.136h297.69c10.56 0 19.136-8.576 19.136-19.136s-8.576-19.136-19.136-19.136zM867.584 402.534h-297.69c-10.56 0-19.136 8.576-19.136 19.136s8.576 19.136 19.136 19.136h297.69c10.56 0 19.136-8.576 19.136-19.136s-8.576-19.136-19.136-19.136zM867.584 266.445h-297.69c-10.56 0-19.136 8.576-19.136 19.136s8.576 19.136 19.136 19.136h297.69c10.56 0 19.136-8.576 19.136-19.136s-8.576-19.136-19.136-19.136z" />
<glyph unicode="&#xe905;" glyph-name="company1" d="M27.379 551.014c-25.19-25.19-27.034-83.405-27.034-83.405l0.384-461.21h1020.915l1.459 464.666c0 0 0.486 60.57-21.798 85.76-23.27 26.304-97.882 25.19-97.882 25.19h-800.435c0 0.013-49.434-4.813-75.61-31.002zM1022.618 709.952h-638.618l-127.923 127.91h-256.077v-191.872h1022.618z" />
<glyph unicode="&#xe906;" glyph-name="contact" d="M481.498-58.867c-87.014 0-224.704 5.581-344.205 46.246l-3.162 1.062c-42.022 14.246-120.23 40.768-120.23 122.829 0 82.893 68.813 117.248 141.683 153.638l5.402 2.701c22.618 11.315 51.661 22.669 82.419 34.675 41.997 16.397 119.629 46.733 129.536 64.55-0.461 17.485-9.114 27.162-32.909 51.328-16.755 17.011-37.594 38.195-60.339 70.413-47.424 67.174-83.187 220.122-26.944 332.595 68.147 136.256 247.744 140.211 255.36 140.314 0.128 0 0.256 0 0.371 0 14.797 0 26.893-11.891 27.085-26.739 0.205-14.95-11.738-27.226-26.688-27.456v0c-1.536-0.026-154.368-3.827-207.629-110.349-46.157-92.314-15.846-222.451 22.746-277.107 20.198-28.608 38.515-47.219 54.682-63.654 26.022-26.432 48.499-49.267 48.499-90.867 0-49.434-76.006-79.142-164.032-113.523-29.581-11.546-57.51-22.464-77.901-32.666l-5.427-2.714c-73.395-36.646-111.693-57.971-111.693-105.152 0-39.962 37.786-56.026 83.43-71.488l3.213-1.101c137.6-46.81 304.87-44.058 376.32-42.842 8.742 0.141 15.962 0.269 21.427 0.269 14.963 0 27.098-12.134 27.098-27.098s-12.134-27.098-27.098-27.098c-5.235 0-12.147-0.115-20.531-0.256-13.709-0.218-30.81-0.512-50.483-0.512zM751.693-43.059c-13.030 0-24.525 9.421-26.701 22.694-2.419 14.771 7.578 28.71 22.336 31.142 42.099 6.925 80.742 16.307 114.854 27.917l3.226 1.101c45.632 15.475 83.418 31.526 83.418 71.488 0 47.194-38.31 68.518-111.731 105.165l-5.389 2.701c-20.416 10.202-48.346 21.12-77.926 32.678-88 34.394-163.994 64.077-163.994 113.51 0 41.6 22.477 64.422 48.499 90.867 16.179 16.422 34.496 35.046 54.682 63.642 38.592 54.669 68.902 184.806 22.733 277.107-53.542 107.046-206.054 110.31-207.59 110.336-14.963 0.205-26.931 12.493-26.726 27.456 0.192 14.835 12.288 26.739 27.085 26.739 0.128 0 0.243 0 0.371 0 7.603-0.102 187.2-4.058 255.322-140.301 56.243-112.474 20.493-265.421-26.931-332.608-22.733-32.218-43.584-53.389-60.339-70.4-23.782-24.166-32.448-33.856-32.909-51.341 9.894-17.818 87.526-48.141 129.51-64.55 30.758-12.006 59.827-23.36 82.432-34.675l5.363-2.675c72.87-36.39 141.722-70.758 141.722-153.664 0-82.061-78.195-108.57-120.218-122.816l-3.174-1.075c-36.928-12.557-78.477-22.682-123.494-30.093-1.485-0.23-2.97-0.346-4.429-0.346z" />
<glyph unicode="&#xe907;" glyph-name="delete" d="M955.11 701.978h-184.32v190.72c0 37.094-30.195 67.302-67.302 67.302h-400.038c-37.107 0-67.302-30.208-67.302-67.315v-190.72h-184.32c-13.299 0-24.090-10.79-24.090-24.090s10.79-24.090 24.090-24.090h102.016v-647.629c0-37.107 30.195-67.315 67.302-67.315h564.646c37.107 0 67.302 30.208 67.302 67.315v647.642h102.016c13.299 0 24.090 10.79 24.090 24.090s-10.79 24.090-24.090 24.090zM281.011 892.685c0 12.378 10.074 22.426 22.438 22.426h400.038c12.378 0 22.438-10.061 22.438-22.426v-190.72h-444.915v190.72zM808.23 6.17c0-12.378-10.074-22.426-22.438-22.426h-564.646c-12.378 0-22.438 10.061-22.438 22.426v647.629h609.536v-647.629zM348.928 67.315c10.368 0 18.765 8.397 18.765 18.765v450.522c0 10.368-8.397 18.765-18.765 18.765s-18.765-8.397-18.765-18.765v-450.534c0.013-10.355 8.41-18.752 18.765-18.752zM512.755 67.315c10.368 0 18.765 8.397 18.765 18.765v450.522c0 10.368-8.397 18.765-18.765 18.765s-18.765-8.397-18.765-18.765v-450.534c0.013-10.355 8.41-18.752 18.765-18.752zM676.595 67.315c10.368 0 18.765 8.397 18.765 18.765v450.522c0 10.368-8.397 18.765-18.765 18.765s-18.765-8.397-18.765-18.765v-450.534c0.013-10.355 8.41-18.752 18.765-18.752z" />
<glyph unicode="&#xe908;" glyph-name="edit" d="M259.213 421.35c-9.075-2.509-16.102-9.728-18.381-18.854l-67.021-268.096c-2.227-8.909 0.384-18.33 6.886-24.819 4.966-4.954 11.648-7.654 18.483-7.654 2.112 0 4.237 0.256 6.349 0.794l268.083 67.008c9.126 2.278 16.346 9.293 18.842 18.381 2.522 9.062-0.051 18.79-6.694 25.459l-201.088 201.088c-6.656 6.656-16.346 9.216-25.459 6.694zM235.123 163.994l45.248 181.018 135.757-135.77-181.005-45.248zM312.998 431.424l189.542-189.606c4.902-4.902 11.546-7.654 18.483-7.654s13.581 2.752 18.483 7.654l453.952 453.926c11.878 11.763 18.995 27.098 20.096 42.778 1.408 17.139-4.493 33.677-16.218 45.402l-142.298 142.157c-22.49 22.528-62.733 21.875-89.472-5.222l-452.57-452.454c-10.214-10.214-10.214-26.765 0-36.979zM804.096 885.478c2.982 2.995 6.848 4.8 10.317 4.8 0.922 0 2.624-0.154 3.648-1.178l142.298-142.157c0.819-0.832 1.203-2.33 1.024-4.467-0.23-3.328-1.946-6.822-4.826-9.677l-435.533-435.507-152.563 152.627 435.635 435.558zM993.587 576.512c-14.451 0-26.15-11.712-26.15-26.15v-539.981c0-9.83-7.987-17.818-17.818-17.818h-879.501c-9.83 0-17.818 7.987-17.818 17.818v879.501c0 9.83 7.987 17.818 17.818 17.818h531.264c14.451 0 26.15 11.712 26.15 26.15s-11.699 26.15-26.15 26.15h-531.264c-38.656 0-70.118-31.462-70.118-70.118v-879.501c0-38.656 31.462-70.118 70.118-70.118h879.501c38.656 0 70.118 31.462 70.118 70.118v539.981c0 14.451-11.699 26.15-26.15 26.15z" />
<glyph unicode="&#xe909;" glyph-name="email" d="M941.952 823.462h-864.179c-42.88 0-77.773-34.88-77.773-77.773v-587.635c0-42.893 34.893-77.773 77.773-77.773h864.179c42.893 0 77.773 34.893 77.773 77.773v587.635c0 42.893-34.88 77.773-77.773 77.773zM967.872 745.69v-579.354l-247.552 229.952c-10.458 9.728-26.893 9.152-36.634-1.344-9.754-10.496-9.139-26.906 1.344-36.634l243.482-226.189h-836.16l232.077 214.81c10.509 9.728 11.136 26.125 1.421 36.634-9.728 10.483-26.099 11.136-36.634 1.421l-237.363-219.699v561.357c77.312-88.973 302.298-334.899 431.155-339.584 1.114-0.038 2.227-0.051 3.379-0.051 105.446 0 313.818 171.763 399.168 246.246 10.79 9.408 11.904 25.792 2.509 36.57-9.472 10.842-25.856 11.904-36.582 2.496-162.432-141.696-309.798-235.84-366.605-233.434-100.621 3.661-313.088 227.597-403.315 332.723h860.39c14.31 0 25.92-11.622 25.92-25.92z" />
<glyph unicode="&#xe90a;" glyph-name="favorite" d="M509.171 64.563c-3.712 0-7.424 0.806-10.867 2.406-20.173 9.408-494.016 233.51-498.253 506.291-2.394 155.904 73.933 270.618 199.232 299.379 135.808 31.309 278.618-124.019 284.621-130.65 9.549-10.522 8.742-26.765-1.766-36.314-10.496-9.549-26.739-8.768-36.314 1.741-1.28 1.408-128.371 139.456-235.034 115.085-100.275-23.014-161.306-118.221-159.296-248.448 3.405-219.942 387.866-420.582 457.754-455.232 68.774 33.728 442.24 227.136 457.651 456.55 9.523 141.914-38.426 224.333-142.49 244.954-198.246 39.232-283.712-239.104-284.557-241.933-4.058-13.606-18.394-21.325-31.987-17.306-13.606 4.058-21.363 18.381-17.306 31.987 33.664 112.947 148.749 316.365 343.846 277.696 129.741-25.715 195.008-131.853 183.808-298.842-18.944-281.92-478.758-496.051-498.33-505.024-3.405-1.562-7.066-2.342-10.714-2.342z" />
<glyph unicode="&#xe90b;" glyph-name="fax" d="M1023.334 424.896c0 8.614-4.454 15.872-10.906 20.608l-77.21 111.283c-0.602 0.858-1.242 1.677-1.933 2.47-5.709 6.4-11.085 13.146-16.346 19.725-21.274 26.56-43.29 54.042-77.901 54.042h-68.288c-1.69 0-3.162-0.653-4.749-0.96v167.898c0 15.334-12.442 27.776-27.776 27.776h-452.045c-15.334 0-27.776-12.442-27.776-27.776v-166.938h-53.53c-37.146 0-59.187-24.576-87.078-55.706l-112.077-138.33c-0.96-1.203-1.472-2.637-2.202-3.968-0.538-0.986-1.203-1.856-1.613-2.906-1.178-2.995-1.907-6.131-1.907-9.395v-294.861c0-43.034 35.008-78.054 78.054-78.054h867.226c43.034 0 78.054 35.008 78.054 78.054v293.786c0 0.627-0.23 1.229-0.282 1.856 0.026 0.486 0.282 0.896 0.282 1.395zM770.752 580.992h68.288c9.613 0 24.32-18.342 37.286-34.534 5.478-6.848 11.098-13.85 17.011-20.57l52.006-74.97h-180.275c0.269 1.549 0.934 2.97 0.934 4.595v126.438c1.587-0.307 3.059-0.96 4.749-0.96zM710.451 772.198v-316.685c0-1.626 0.653-3.046 0.934-4.595h-73.971c-14.362 0-26.022-11.648-26.022-26.022v-133.338h-211.379v131.162c0 14.362-11.648 26.022-26.022 26.022h-60.032v323.456h396.493zM146.074 530.97l10.47 11.622c25.51 28.442 35.571 38.4 48.333 38.4h53.53v-132.25h-178.214l65.882 82.227zM945.28 101.85h-867.226c-14.336 0-26.022 11.674-26.022 26.022v268.838h295.936v-131.162c0-14.362 11.648-26.022 26.022-26.022h263.424c14.362 0 26.022 11.648 26.022 26.022v133.325h307.866v-271.014c-0.013-14.336-11.686-26.010-26.022-26.010zM370.739 626.79h279.68c10.637 0 19.251 8.614 19.251 19.251s-8.614 19.251-19.251 19.251h-279.68c-10.637 0-19.251-8.614-19.251-19.251s8.614-19.251 19.251-19.251zM370.739 549.798h197.299c10.637 0 19.251 8.614 19.251 19.251s-8.614 19.251-19.251 19.251h-197.299c-10.637 0-19.251-8.614-19.251-19.251s8.614-19.251 19.251-19.251z" />
<glyph unicode="&#xe90c;" glyph-name="group" d="M709.85 928h-461.978v-451.635h-84.288c-7.974 37.734-41.485 66.15-81.549 66.15-45.99 0-83.405-37.414-83.405-83.405s37.414-83.405 83.405-83.405c40.051 0 73.574 28.416 81.549 66.15h84.288v-451.635h769.728v630.374l-307.75 307.405zM82.035 410.214c-26.957 0-48.896 21.939-48.896 48.896s21.939 48.896 48.896 48.896 48.883-21.939 48.883-48.896-21.926-48.896-48.883-48.896zM971.61 36.198h-677.722v845.773h396.89l280.832-280.448v-565.325z" />
<glyph unicode="&#xe90d;" glyph-name="info" d="M509.338-58.675c-280.858 0-509.338 228.493-509.338 509.325 0 280.858 228.48 509.35 509.338 509.35s509.338-228.493 509.338-509.35c0-167.898-82.739-324.966-221.312-420.147-12.467-8.576-29.414-5.389-37.939 7.040-8.538 12.416-5.389 29.414 7.040 37.939 123.763 85.005 197.645 225.254 197.645 375.168 0 250.765-204.006 454.771-454.758 454.771s-454.784-203.994-454.784-454.771c0-250.752 204.006-454.758 454.758-454.758 33.152 0 66.214 3.571 98.253 10.637 14.592 3.2 29.274-6.054 32.512-20.787 3.238-14.707-6.067-29.261-20.787-32.512-35.866-7.91-72.883-11.904-109.965-11.904zM563.584 649.178h-108.493v89.395h108.493v-89.395zM455.091 588.058h108.493v-394.982h-108.493v394.982z" />
<glyph unicode="&#xe90e;" glyph-name="map" d="M495.36-64.896c-6.797 0-13.312 2.701-18.112 7.501-15.219 15.219-372.634 375.526-372.634 626.65 0 215.462 175.296 390.746 390.746 390.746 215.462 0 390.746-175.283 390.746-390.746 0-251.136-357.414-611.43-372.621-626.65-4.813-4.8-11.328-7.501-18.125-7.501zM495.36 908.749c-187.2 0-339.494-152.294-339.494-339.494 0-199.616 266.739-494.822 339.494-571.635 72.768 76.813 339.494 372.019 339.494 571.635 0 187.2-152.294 339.494-339.494 339.494zM496.806 350.925c-119.578 0-216.87 97.293-216.87 216.87s97.293 216.87 216.87 216.87 216.87-97.293 216.87-216.87-97.28-216.87-216.87-216.87zM496.806 733.44c-91.328 0-165.632-74.304-165.632-165.632s74.304-165.632 165.632-165.632 165.632 74.304 165.632 165.632-74.304 165.632-165.632 165.632z" />
<glyph unicode="&#xe90f;" glyph-name="message" d="M175.667-58.739c-11.187 0-20.8 5.619-25.754 15.040-9.741 18.573 1.51 34.867 26.125 70.554 21.824 31.667 62.464 90.56 54.336 116.531-12.646 40.525-28.762 56.448-67.674 94.925-18.406 18.202-41.318 40.87-70.003 72.422-62.451 68.685-89.242 163.264-75.443 266.304 16.077 120.115 85.683 238.234 173.158 293.914 90.227 57.434 203.494 89.050 318.899 89.050 115.686 0 225.37-31.821 308.826-89.587 106.496-73.728 173.414-186.778 188.442-318.349 13.811-121.011-20.442-243.315-89.434-319.206-97.344-107.085-222.746-145.293-353.485-177.958-20.173-5.056-39.437-9.69-58.317-14.259-93.581-22.592-174.4-42.099-311.168-95.27-7.194-2.803-13.082-4.109-18.509-4.109zM509.312 909.491c-105.92 0-209.562-28.813-291.776-81.152-74.458-47.373-136.218-153.472-150.221-258.010-8.333-62.259-4.224-151.962 62.746-225.613 27.776-30.566 50.176-52.698 68.16-70.502 41.242-40.794 63.962-63.258 80.371-115.763 14.016-44.838-21.018-101.709-51.712-146.79 111.002 40.525 186.88 58.816 266.624 78.080 18.752 4.518 37.875 9.126 57.907 14.131 122.918 30.733 240.538 66.317 328.384 162.97 59.469 65.421 88.832 172.518 76.608 279.501-13.338 116.877-72.653 217.216-167.014 282.534-75.098 51.994-174.554 80.614-280.077 80.614z" />
<glyph unicode="&#xe910;" glyph-name="mobile" d="M782.528-62.477h-569.37c-39.898 0-72.358 32.448-72.358 72.346v877.773c0 39.898 32.461 72.358 72.358 72.358h569.37c39.898 0 72.358-32.461 72.358-72.358v-877.773c-0.013-39.898-32.474-72.346-72.358-72.346zM213.158 910.182c-12.429 0-22.541-10.112-22.541-22.541v-877.773c0-12.429 10.112-22.528 22.541-22.528h569.37c12.429 0 22.541 10.099 22.541 22.528v877.773c0 12.429-10.112 22.541-22.541 22.541h-569.37zM721.51 68.39h-73.523c-9.165 0-16.602 7.45-16.602 16.614s7.437 16.614 16.602 16.614h73.523c11.392 0 20.672 9.267 20.672 20.646l-1.907 704.243c0 11.443-9.28 20.723-20.672 20.723h-447.347c-11.392 0-20.672-9.28-20.672-20.672l1.907-704.243c0-11.43 9.28-20.698 20.672-20.698h267.955c9.165 0 16.602-7.45 16.602-16.614s-7.437-16.614-16.602-16.614h-267.955c-29.709 0-53.875 24.179-53.875 53.875l-1.907 704.243c0 29.76 24.166 53.926 53.875 53.926h447.347c29.709 0 53.875-24.166 53.875-53.875l1.907-704.243c0.013-29.747-24.154-53.926-53.875-53.926zM527.501 27.674c0-16.371-13.274-29.658-29.658-29.658v0c-16.371 0-29.658 13.274-29.658 29.658v0c0 16.371 13.274 29.658 29.658 29.658v0c16.371-0.013 29.658-13.286 29.658-29.658v0z" />
<glyph unicode="&#xe911;" glyph-name="name2" d="M305.587 703.821h73.011l271.782-418.547h1.472v418.547h65.050v-516.096h-75.149l-269.645 414.17h-1.459v-414.17h-65.062v516.096zM510.95-61.862c-281.741 0-510.95 229.197-510.95 510.925s229.21 510.938 510.95 510.938c281.728 0 510.912-229.21 510.912-510.938s-229.197-510.925-510.912-510.925zM510.95 902.157c-249.843 0-453.107-203.251-453.107-453.094 0-249.83 203.264-453.094 453.107-453.094s453.082 203.264 453.082 453.094c-0.013 249.843-203.251 453.094-453.082 453.094z" />
<glyph unicode="&#xe912;" glyph-name="password" d="M510.81 49.779c-215.898 0-336.282 163.763-336.282 247.066 0 30.656 0 176.141 0 176.141 0 22.81 19.891 41.306 44.429 41.306h577.536c24.538 0 44.429-18.496 44.429-41.306 0 0 0-128.525 0-185.216 0-87.258-136.87-237.99-330.112-237.99zM335.782 547.123c-19.712 0-37.030 14.259-40.218 34.33-8.781 55.309-1.254 157.76 82.701 190.899 80.307 31.731 178.342 32.55 255.834 2.163 79.386-31.117 92.442-133.478 87.642-189.056-1.958-22.464-22.003-38.938-44.16-37.133-22.464 1.933-39.091 21.709-37.146 44.173 1.856 23.014-0.781 92.198-36.122 106.048-58.163 22.797-135.13 22.003-196.070-2.086-43.674-17.254-32.192-101.504-32.064-102.362 3.366-22.221-11.866-43.059-34.074-46.502-2.125-0.307-4.237-0.474-6.323-0.474zM507.738-55.475c-279.974 0-507.738 227.776-507.738 507.738s227.763 507.738 507.738 507.738 507.738-227.763 507.738-507.738c0-167.386-82.483-323.955-220.646-418.842-12.39-8.525-29.312-5.363-37.811 7.014-8.512 12.378-5.363 29.325 7.027 37.824 123.366 84.736 197.030 224.55 197.030 374.003 0 249.971-203.366 453.325-453.325 453.325s-453.35-203.354-453.35-453.325c0-249.984 203.366-453.35 453.325-453.35 33.037 0 65.997 3.558 97.946 10.598 14.528 3.264 29.184-6.029 32.41-20.723 3.226-14.669-6.042-29.171-20.723-32.41-35.776-7.872-72.666-11.853-109.619-11.853z" />
<glyph unicode="&#xe913;" glyph-name="Profitcenter" d="M1004.518 351.795v196.685h-684.749v-75.52h-98.406c-6.003 37.978-35.392 68.224-72.973 75.392v214.963h536.346v196.685h-684.736v-196.685h114.138v-214.963c-42.189-8.051-74.189-45.158-74.189-89.664s32.013-81.613 74.189-89.651v-228.774c-42.189-8.051-74.189-45.171-74.189-89.664 0-50.355 40.973-91.328 91.315-91.328 44.493 0 81.6 32.013 89.651 74.189h98.842v-93.21h684.749v196.71h-684.736v-69.235h-98.842c-6.976 36.634-35.891 65.562-72.538 72.55v228.762c35.674 6.797 64.013 34.394 71.923 69.67h99.443v-86.925h684.762zM188.339 50.611c0-31.475-25.6-57.075-57.075-57.075-31.462 0-57.062 25.6-57.062 57.075s25.6 57.075 57.062 57.075c31.475 0 57.075-25.6 57.075-57.075zM131.264 401.626c-31.462 0-57.062 25.6-57.062 57.062 0 31.475 25.6 57.075 57.062 57.075 31.475 0 57.075-25.6 57.075-57.075 0-31.462-25.6-57.062-57.075-57.062z" />
<glyph unicode="&#xe914;" glyph-name="project" d="M1023.142 252.966c-4.454 12.429-18.202 18.906-30.541 14.413l-249.024-89.331v348.851l178.368-52.723v-99.968c0-13.197 10.675-23.872 23.872-23.872s23.872 10.675 23.872 23.872v117.798c0 10.586-6.976 19.891-17.114 22.899l-208.998 61.773v197.133c0 8.896-4.941 17.050-12.826 21.171l-180.774 94.298c-4.403 2.278-27.302 13.581-46.323 13.107-19.84-0.538-38.682-11.315-41.728-13.158l-174.579-99.072c-7.475-4.237-12.083-12.173-12.083-20.762v-88.038c-0.704-0.23-1.434-0.154-2.125-0.461l-205.107-89.101c-8.717-3.789-14.362-12.378-14.362-21.888v-295.347l-20.851 8.422c-12.275 4.877-26.138-0.998-31.078-13.222s0.973-26.138 13.197-31.078l437.478-176.614c5.21-2.189 32.192-13.107 52.39-13.107 19.059 0 48.294 10.074 54.029 12.096l449.894 161.37c12.403 4.454 18.867 18.125 14.413 30.541zM101.414 554.253l173.85 75.52v-444.685l-173.85 70.195v298.97zM542.784 106.035c-10.586-3.75-29.978-9.331-37.965-9.331-7.834 0-24.858 5.594-34.202 9.51l-147.61 59.597v589.683l163.021 92.531c3.597 2.163 13.146 6.477 18.918 6.643 3.456 0.358 14.95-3.597 23.002-7.757l167.872-87.578v-598.413l-153.037-54.886z" />
<glyph unicode="&#xe915;" glyph-name="selectcompany" d="M932.096 921.6h-665.421c-47.744 0-86.592-39.258-86.592-87.501v-143.616h-130.79c-27.226 0-49.293-21.606-49.293-48.256v-514.739c0-26.65 22.067-48.256 49.293-48.256h230.016c27.226 0 49.293 21.606 49.293 48.256v217.498h131.29c-1.344-3.853-2.214-7.936-2.214-12.25v-101.722c0-20.429 16.371-36.992 36.57-36.992h210.266c20.198 0 36.57 16.563 36.57 36.992v101.722c0 4.314-0.87 8.397-2.214 12.25h193.229c47.744 0 86.592 39.258 86.592 87.488v401.626c0 48.243-38.848 87.501-86.592 87.501zM944.077 432.474c0-7.104-5.363-12.877-11.981-12.877h-603.494v222.63c0 26.65-22.067 48.256-49.293 48.256h-24.614v143.616c0 7.104 5.376 12.877 11.981 12.877h665.421c6.618 0 11.981-5.773 11.981-12.877v-401.626zM784.435 138.010h-370.112c-16.41 0-29.722-13.312-29.722-29.722s13.312-29.722 29.722-29.722h370.112c16.41 0 29.722 13.312 29.722 29.722s-13.299 29.722-29.722 29.722z" />
<glyph unicode="&#xe916;" glyph-name="selectrole" d="M795.917 677.76c0-155.877-126.363-282.24-282.24-282.24s-282.24 126.363-282.24 282.24c0 155.877 126.363 282.24 282.24 282.24s282.24-126.363 282.24-282.24zM812.211 335.744v0.192c0 0-96.704 0-126.374 0-4.787 0-11.942-1.242-18.944-2.893-6.349-1.498-12.134-3.981-17.882-7.142-40.192-22.080-86.246-34.765-135.334-34.765-47.782 0-92.685 12.019-132.096 33.011-6.874 3.661-13.786 6.298-21.222 8.486-7.194 2.112-18.125 3.302-28.838 3.302-29.248 0-112.576 0-112.576 0-108.544 0-196.544-88-196.544-196.544s87.987-196.544 196.544-196.544v-0.256l593.267 0.448c106.765 2.048 192.73 89.088 192.73 196.352s-85.965 194.304-192.73 196.352z" />
<glyph unicode="&#xe917;" glyph-name="serch" d="M875.648-58.995c-15.181 0-29.44 5.901-40.115 16.589l-154.086 154.074c-69.12-39.962-147.085-60.966-226.79-60.966-250.701 0-454.656 203.955-454.656 454.656s203.955 454.643 454.656 454.643c250.688 0 454.643-203.942 454.643-454.643 0-79.731-21.005-157.709-60.966-226.829l154.086-154.086c10.675-10.65 16.589-24.909 16.614-40.090 0-15.206-5.901-29.491-16.614-40.192l-86.618-86.566c-10.688-10.688-24.947-16.589-40.154-16.589zM685.414 170.867c6.746 0 13.44-2.611 18.496-7.667l168.627-168.627c2.099-2.074 4.237-2.022 6.259 0l86.618 86.566c1.050 1.050 1.28 2.304 1.28 3.149-0.026 0.87-0.23 2.099-1.254 3.123l-168.64 168.653c-8.691 8.691-10.176 22.285-3.52 32.614 41.677 65.011 63.706 139.942 63.706 216.678 0 221.837-180.48 402.317-402.317 402.317-221.85 0-402.33-180.48-402.33-402.317 0-221.85 180.48-402.33 402.33-402.33 76.723 0 151.616 22.029 216.627 63.706 4.326 2.778 9.229 4.134 14.118 4.134zM454.656 173.12c-183.181 0-332.224 149.030-332.224 332.237 0 183.181 149.030 332.224 332.224 332.224s332.224-149.030 332.224-332.224c0-183.206-149.018-332.237-332.224-332.237zM454.656 785.242c-154.342 0-279.885-125.555-279.885-279.885s125.555-279.898 279.885-279.898c154.33 0 279.885 125.568 279.885 279.898s-125.555 279.885-279.885 279.885z" />
<glyph unicode="&#xe918;" glyph-name="server" d="M139.341 728.256h-112.422c-13.99 0-25.331 11.341-25.331 25.331s11.341 25.331 25.331 25.331h112.422c13.99 0 25.331-11.341 25.331-25.331s-11.341-25.331-25.331-25.331zM996.531 123.366h-124.544c-14.003 0-25.331 11.341-25.331 25.331s11.328 25.331 25.331 25.331h124.544c14.003 0 25.331-11.341 25.331-25.331s-11.328-25.331-25.331-25.331zM996.531 730.662h-673.498c-12.672 0-22.938 10.266-22.938 22.938s10.266 22.938 22.938 22.938h673.498c12.672 0 22.938-10.266 22.938-22.938s-10.278-22.938-22.938-22.938zM354.701 425.818h-329.37c-13.99 0-25.331 11.341-25.331 25.331s11.341 25.331 25.331 25.331h329.37c13.99 0 25.331-11.341 25.331-25.331s-11.341-25.331-25.331-25.331zM996.531 425.818h-458.15c-14.003 0-25.331 11.341-25.331 25.331s11.328 25.331 25.331 25.331h458.15c14.003 0 25.331-11.341 25.331-25.331s-11.328-25.331-25.331-25.331zM680.896 123.366h-655.565c-13.99 0-25.331 11.354-25.331 25.344s11.341 25.331 25.331 25.331h655.565c14.003 0 25.331-11.341 25.331-25.331s-11.328-25.344-25.331-25.344zM231.194 709.261c-26.189 0-47.501 21.312-47.501 47.501s21.312 47.501 47.501 47.501 47.501-21.312 47.501-47.501-21.312-47.501-47.501-47.501zM231.194 778.931c-12.224 0-22.17-9.946-22.17-22.17s9.946-22.17 22.17-22.17 22.17 9.946 22.17 22.17-9.958 22.17-22.17 22.17zM775.898 101.197c-26.202 0-47.501 21.312-47.501 47.501s21.299 47.501 47.501 47.501c26.202 0 47.501-21.312 47.501-47.501 0.013-26.176-21.299-47.501-47.501-47.501zM775.898 170.88c-12.224 0-22.17-9.946-22.17-22.17s9.946-22.17 22.17-22.17 22.17 9.946 22.17 22.17-9.946 22.17-22.17 22.17zM446.541 407.347c-26.189 0-47.501 21.312-47.501 47.501s21.312 47.501 47.501 47.501 47.501-21.312 47.501-47.501c0-26.189-21.312-47.501-47.501-47.501zM446.541 477.018c-12.224 0-22.17-9.946-22.17-22.17s9.946-22.17 22.17-22.17 22.17 9.946 22.17 22.17-9.946 22.17-22.17 22.17z" />
<glyph unicode="&#xe919;" glyph-name="seting" d="M496.474-59.661c-44.173 0.102-80.064 36.083-80.064 80.141v90.701c-19.354 4.531-38.298 10.765-56.64 18.675l-68.659-68.582c-31.002-31.078-81.856-31.13-113.267-0.23l-38.054 38.144c-31.181 31.181-31.13 82.048 0.128 113.344l57.958 57.92c-11.482 19.008-21.082 38.912-28.659 59.494h-88.96c-44.25-0.013-80.256 35.878-80.256 80v53.645c0 44.186 36.006 80.141 80.256 80.141h80.448c5.888 21.082 13.85 41.677 23.808 61.606l-63.59 63.603c-31.219 31.514-31.232 82.33-0.102 113.37l38.016 37.965c31.194 31.168 82.035 31.206 113.318 0.013l61.901-61.837c17.856 9.408 36.442 17.203 55.552 23.309v98.112c0 44.173 35.904 80.128 80.013 80.128h53.696c44.134 0 80.064-35.955 80.064-80.128v-98.176c16.589-5.299 32.704-11.827 48.256-19.52l77.133 76.992c31.155 31.104 81.946 31.104 113.152 0l37.914-37.862c15.27-15.181 23.667-35.418 23.616-56.96-0.077-21.402-8.499-41.446-23.744-56.422l-74.944-75.2c7.258-13.683 13.594-27.75 18.957-42.061h115.942c44.058 0 80.038-35.93 80.141-80.064v-53.773c-0.102-44.16-36.058-80.064-80.141-80.064h-107.315c-4.096-14.579-9.216-29.043-15.347-43.341l81.766-81.92c15.27-15.142 23.718-35.379 23.693-56.883 0-21.376-8.397-41.459-23.59-56.525l-37.888-37.939c-7.885-7.834-17.050-13.824-27.328-17.869-13.517-5.274-28.838 1.344-34.202 14.886-5.325 13.542 1.344 28.864 14.886 34.202 3.533 1.395 6.669 3.456 9.37 6.131l37.914 37.99c5.248 5.171 8.090 11.955 8.090 19.162 0 7.334-2.906 14.272-8.192 19.52l-94.797 94.976c-7.962 7.962-9.971 20.109-4.992 30.234 11.098 22.669 19.238 45.939 24.128 69.197 2.573 12.211 13.338 20.941 25.805 20.941h127.987c15.066 0 27.354 12.288 27.405 27.405v53.619c-0.051 15.066-12.339 27.405-27.405 27.405h-134.746c-11.533 0-21.734 7.488-25.165 18.522-7.232 23.13-17.459 45.683-30.387 67.034-6.285 10.368-4.685 23.693 3.891 32.282l89.28 89.6c5.299 5.21 8.141 11.955 8.166 19.162 0.026 7.322-2.854 14.246-8.090 19.443l-37.939 37.888c-10.662 10.611-28.019 10.624-38.682-0.013l-90.906-90.726c-8.397-8.371-21.376-10.086-31.654-4.25-22.822 12.966-47.386 22.899-73.011 29.504-11.661 2.995-19.802 13.504-19.802 25.536v117.939c0 15.104-12.262 27.392-27.328 27.392h-53.696c-15.040 0-27.277-12.288-27.277-27.392v-117.99c0-12.070-8.192-22.592-19.891-25.562-27.75-7.027-54.387-18.214-79.194-33.242-10.419-6.31-23.731-4.672-32.32 3.891l-76.045 75.981c-10.701 10.675-28.122 10.675-38.771 0l-38.042-37.978c-10.611-10.586-10.509-27.994 0.23-38.835l77.35-77.35c8.422-8.41 10.163-21.427 4.237-31.757-15.462-27.021-26.47-55.667-32.704-85.133-2.586-12.186-13.338-20.915-25.805-20.915h-101.12c-15.168 0-27.52-12.288-27.52-27.405v-53.645c0-15.040 12.352-27.277 27.52-27.277h107.917c11.61 0 21.862-7.603 25.242-18.726 8.794-28.966 22.208-56.576 39.872-82.022 7.258-10.483 6.003-24.666-3.021-33.69l-73.037-73.011c-10.714-10.739-10.778-28.122-0.115-38.784l37.901-37.99c10.726-10.496 28.211-10.496 38.835 0.141l81.69 81.587c8 8.038 20.237 10.022 30.374 4.966 25.766-12.826 53.082-21.658 81.203-26.317 12.736-2.086 22.067-13.107 22.067-26.010v-112.32c0-15.066 12.288-27.354 27.392-27.405h53.645c15.040 0.051 27.328 12.339 27.328 27.405v126.17c0 11.149 7.027 21.12 17.536 24.858 25.702 9.139 49.139 21.094 69.658 35.507 11.93 8.397 28.378 5.466 36.749-6.413 8.371-11.93 5.491-28.378-6.413-36.749-19.622-13.773-41.357-25.626-64.794-35.302v-108.070c0-44.058-35.878-80.038-79.987-80.141h-53.798zM496.538 289.574c-88.55 0-160.589 72.077-160.589 160.678 0 88.512 72.038 160.525 160.589 160.525 88.614 0 160.73-72.013 160.73-160.525 0-88.589-72.115-160.678-160.73-160.678zM496.538 558.042c-59.482 0-107.853-48.346-107.853-107.789 0-59.52 48.371-107.93 107.853-107.93 59.546 0 107.981 48.41 107.981 107.93 0 59.43-48.435 107.789-107.981 107.789z" />
<glyph unicode="&#xe91a;" glyph-name="telephone" d="M807.757-60.621v0c-30.541 0-304.806 7.462-532.672 264.602-226.688 255.629-230.144 568.179-204.723 619.174 28.915 57.587 87.36 100.198 119.616 120.486 11.162 6.912 22.938 11.648 35.187 14.208 7.066 1.434 14.234 2.15 21.402 2.15 38.746 0 71.13-20.928 90.496-33.434l9.574-6.029c53.235-30.643 78.822-241.907 78.272-250.726-2.368-38.874-31.475-67.712-89.126-119.066 23.181-57.331 71.014-127.923 108.506-170.189 34.944-39.411 108.096-106.547 166.656-139.853 48.192 42.47 77.338 66.202 108.224 72.512 1.318 0.269 2.662 0.461 3.981 0.55l12.16 0.922c1.472 0.090 2.88 0.115 4.352 0.026 8.845-0.512 215.603-51.418 240.051-109.005l4.518-9.754c13.107-26.867 44.493-91.136-0.934-147.29-19.277-23.821-70.886-81.702-133.901-104.333l-5.363-1.626c-1.19-0.346-2.419-0.627-3.674-0.845-10.022-2.048-23.258-2.483-32.602-2.483zM246.566 895.795c-2.906 0-5.658-0.269-8.435-0.845-4.787-0.986-9.574-2.944-14.157-5.786-16.538-10.394-72.858-48.282-96.205-94.733-8.141-22.746-23.309-301.261 195.366-547.891 209.242-236.122 457.062-242.957 484.621-242.957v0c13.581 0 19.059 1.037 19.661 1.165l2.035 0.602c47.309 17.050 91.546 68.378 103.923 83.712 18.189 22.477 7.027 50.381-7.117 79.347l-5.235 11.251c-17.498 20.595-153.869 64.922-184.435 70.733l-6.118-0.474c-17.779-4.864-49.728-33.139-93.453-71.859-9.562-8.435-23.194-10.381-34.765-5.107-69.786 32.256-162.47 115.904-206.003 165.005-47.373 53.376-106.765 143.578-128.666 212.659-3.84 12.096-0.192 25.318 9.306 33.728 46.349 41.075 82.957 73.523 83.93 89.408-0.96 29.171-30.4 173.030-49.818 193.638l-8.486 5.069c-15.437 9.946-36.134 23.334-55.949 23.334z" />
<glyph unicode="&#xe91b;" glyph-name="language" d="M507.725 960c-1.933 0-3.814-0.269-5.747-0.294-0.794 0.026-1.754 0.294-2.534 0.294-0.986 0-1.818-0.461-2.778-0.563-274.829-5.965-496.666-230.938-496.666-507.174 0-275.648 215.654-498.509 490.982-507.456 0.051 0 0.090-0.026 0.141-0.038 2.547-0.077 5.12-0.077 7.68-0.115 0.23 0 0.41-0.128 0.64-0.128 0.269 0 0.627 0.102 0.883 0.102 2.47-0.026 4.928-0.102 7.398-0.102 4.339 0 8.294 1.242 11.942 3.046 56.614 14.029 153.946 80.934 222.656 195.546 18.829-11.699 36.672-25.101 53.76-39.603-22.374-18.522-45.952-35.494-71.334-49.357-13.184-7.219-18.035-23.744-10.829-36.928 7.206-13.171 23.693-18.035 36.902-10.842 36.045 19.712 69.747 43.853 100.186 71.77 104.499 95.949 164.454 232.307 164.454 374.093 0 279.974-227.763 507.75-507.738 507.75zM959.642 480.346h-141.171c-5.837 88.128-26.522 164.877-55.629 229.427 25.997 15.488 50.637 33.421 73.754 53.594 70.874-74.88 116.301-173.696 123.046-283.021zM313.011 169.242c49.869 23.066 103.718 36.941 159.232 40.717v-199.898c-44.224 21.734-109.235 75.968-159.232 159.181zM364.262 21.926c-55.962 18.432-106.918 47.258-150.618 84.365 16.269 13.542 33.178 26.163 50.995 37.197 29.709-49.638 64.73-90.189 99.622-121.562zM526.643 898.099c42.022-18.739 109.914-73.408 162.778-165.158-51.021-23.014-106.061-36.416-162.778-39.347v204.506zM638.515 886.182c58.662-17.715 112.371-46.886 158.387-85.12-18.586-15.846-38.118-30.323-58.752-42.842-29.862 52.8-64.717 95.654-99.635 127.962zM472.243 893.85v-199.898c-53.837 3.674-106.048 16.896-154.65 38.733 49.638 86.272 112.294 139.443 154.65 161.165zM268.813 757.875c-19.098 11.558-37.197 24.87-54.566 39.27 43.571 37.133 94.208 66.048 149.619 84.659-33.408-31.808-66.509-73.395-95.053-123.93zM472.243 639.552v-159.206h-229.146c5.658 79.245 24.192 147.264 49.536 203.93 56.294-25.677 117.018-40.909 179.61-44.723zM472.243 425.946v-161.6c-64.41-3.917-126.925-19.84-184.589-46.899-27.187 58.803-45.683 128.538-46.387 208.486h230.976zM526.643 425.946h239.27c-0.704-80.090-19.264-149.926-46.515-208.794-60.070 28.301-125.427 44.454-192.742 47.552v161.242zM526.643 480.346v158.861c65.472 3.008 129.050 18.47 187.763 45.35 25.408-56.73 44.006-124.838 49.664-204.211h-237.427zM174.976 759.078c21.811-18.522 44.864-35.213 69.171-49.651-29.018-64.474-49.626-141.107-55.45-229.082h-132.877c6.63 107.277 50.547 204.378 119.155 278.733zM55.68 425.946h131.174c0.704-90.189 21.466-168.32 52.365-234.163-22.771-13.875-44.301-29.926-64.832-47.424-68.966 74.752-112.55 172.864-118.707 281.587zM525.99 5.76c0.141 1.101 0.653 2.074 0.653 3.213v201.318c58.381-3.008 115.059-17.062 167.334-41.344-53.402-88.73-124.058-144.781-167.987-163.187zM820.301 425.946h139.379c-6.259-106.522-50.048-207.731-123.366-285.184-21.606 18.816-44.416 35.891-68.544 50.637 31.002 65.92 51.84 144.192 52.531 234.547z" />
<glyph unicode="&#xe91c;" glyph-name="web" d="M460.262 773.632h183.936v-38.656h-139.213v-66.906h128.819v-36.506h-128.819v-74.765h141.696v-38.656h-186.419v255.488zM543.245-64h-13.286c-13.056 0-23.616 10.56-23.616 23.616 0 270.912-83.84 367.795-157.811 453.286-55.475 64.102-107.878 124.646-107.878 242.65 0 163.174 132.762 295.936 295.936 295.936s295.936-132.762 295.936-295.936c0-117.056-52.237-177.523-107.533-241.536-74.112-85.824-158.131-183.104-158.131-454.4 0-13.056-10.56-23.616-23.616-23.616zM536.602 904.243c-137.139 0-248.717-111.565-248.717-248.704 0-100.403 42.509-149.53 96.358-211.738 55.885-64.576 121.869-140.813 152.333-293.261 30.515 152.883 96.678 229.491 152.666 294.323 53.67 62.131 96.051 111.194 96.051 210.675 0.013 137.139-111.565 248.704-248.691 248.704z" />
<glyph unicode="&#xe91d;" glyph-name="usename" d="M701.325 593.92c0-106.039-85.961-192-192-192s-192 85.961-192 192c0 106.039 85.961 192 192 192s192-85.961 192-192zM704.858 366.426v0.128c0 0-63.334 0-82.778 0-3.136 0-7.821-0.806-12.403-1.894-4.16-0.986-7.949-2.611-11.712-4.672-26.317-14.464-56.486-22.771-88.64-22.771-31.296 0-60.71 7.872-86.515 21.619-4.506 2.394-9.024 4.122-13.901 5.555-4.71 1.382-11.878 2.163-18.893 2.163-19.162 0-73.728 0-73.728 0-71.091 0-128.73-57.638-128.73-128.73s125.299-184.461 307.52-190.746c176.282-6.080 336.013 120.486 336.013 190.746s-56.294 127.245-126.234 128.602zM509.325-58.637c-280.845 0-509.325 228.454-509.325 509.312s228.48 509.325 509.325 509.325 509.338-228.48 509.338-509.325c0-165.658-80.998-321.51-216.691-416.909-12.314-8.678-29.363-5.696-38.016 6.618-8.678 12.326-5.696 29.35 6.618 38.016 121.165 85.197 193.51 224.358 193.51 372.275 0 250.752-204.006 454.758-454.771 454.758-250.752 0-454.758-204.006-454.758-454.758s204.006-454.758 454.758-454.758c30.886 0 61.722 3.11 91.674 9.229 14.771 3.162 29.197-6.49 32.205-21.248 3.021-14.758-6.49-29.197-21.248-32.205-33.536-6.874-68.070-10.33-102.618-10.33z" />
</font>
</defs>
</svg>
